<?xml version="1.0" encoding="UTF-8"?>
<svg width="200px" height="200px" viewBox="0 0 200 200" version="1.1" xmlns="http://www.w3.org/2000/svg" xmlns:xlink="http://www.w3.org/1999/xlink">
    <!-- Generator: Sketch 48.1 (47250) - http://www.bohemiancoding.com/sketch -->
    <title>LFI Logo- White</title>
    <desc>Created with Sketch.</desc>
    <defs></defs>
    <g id="LFI-Logo-Options" stroke="none" stroke-width="1" fill="none" fill-rule="evenodd" transform="translate(-328.000000, -143.000000)">
        <g id="LFI-Logo--White" transform="translate(328.000000, 143.000000)" fill="#FFFFFF" fill-rule="nonzero">
            <path d="M34.556962,50.8544304 C34.8417722,50.4746835 34.9683544,50.0949367 34.9050633,49.7468354 C34.8417722,49.3987342 34.6518987,49.0822785 34.335443,48.8291139 C34.0189873,48.5759494 33.6708861,48.4810127 33.3227848,48.5443038 C32.9746835,48.6075949 32.6582278,48.7974684 32.3417722,49.2088608 L30.8860759,51.1392405 L33.0696203,52.8164557 L34.556962,50.8544304 Z" id="Shape"></path>
            <path d="M39.1139241,54.1139241 C39.4303797,53.7025316 39.5253165,53.3227848 39.4620253,52.9113924 C39.3987342,52.5 39.2088608,52.1835443 38.8607595,51.9303797 C38.5126582,51.6772152 38.1329114,51.5506329 37.721519,51.6139241 C37.3101266,51.6772152 36.9620253,51.8987342 36.6772152,52.278481 L35.0949367,54.335443 L37.5,56.1708861 L39.1139241,54.1139241 Z" id="Shape"></path>
            <path d="M45.3797468,40.1265823 C45.7911392,39.7468354 46.0126582,39.3670886 46.0443038,38.9556962 C46.0759494,38.5443038 45.9177215,38.164557 45.6012658,37.8164557 C45.2848101,37.4683544 44.9050633,37.2468354 44.4936709,37.2468354 C44.0822785,37.2151899 43.6708861,37.4050633 43.2594937,37.7531646 L41.6772152,39.1772152 L43.8291139,41.5506329 L45.3797468,40.1265823 Z" id="Shape"></path>
            <path d="M120.316456,21.3924051 C120.664557,21.2025316 120.886076,20.8544304 121.012658,20.3797468 C121.139241,19.9050633 121.075949,19.4936709 120.85443,19.1455696 C120.632911,18.7974684 120.253165,18.5443038 119.71519,18.4177215 L117.626582,17.943038 L116.898734,21.0443038 L118.987342,21.5189873 C119.525316,21.6455696 119.968354,21.5822785 120.316456,21.3924051 Z" id="Shape"></path>
            <polygon id="Shape" points="60.1582278 32.278481 56.1392405 28.9873418 57.2151899 34.0822785"></polygon>
            <path d="M71.7088608,24.3037975 C72.2151899,24.1139241 72.5632911,23.8291139 72.7531646,23.4810127 C72.943038,23.1329114 72.943038,22.721519 72.7531646,22.2468354 C72.5949367,21.8037975 72.3101266,21.4556962 71.9303797,21.2974684 C71.5506329,21.1075949 71.1075949,21.1392405 70.6012658,21.3291139 L68.5759494,22.0886076 L69.6835443,25.0632911 L71.7088608,24.3037975 Z" id="Shape"></path>
            <path d="M155,46.1392405 C155.537975,46.1392405 156.139241,45.8227848 156.740506,45.221519 C157.025316,44.9683544 157.373418,44.6202532 157.78481,44.2088608 C158.196203,43.7658228 158.512658,43.4177215 158.734177,43.1329114 C159.272152,42.5316456 159.556962,41.9303797 159.525316,41.3607595 C159.493671,40.7911392 159.177215,40.221519 158.607595,39.6518987 L157.278481,38.3860759 L151.898734,43.9873418 L153.291139,45.3164557 C153.892405,45.8860759 154.462025,46.1708861 155,46.1392405 Z" id="Shape"></path>
            <path d="M162.816456,56.6772152 C163.196203,57.2151899 163.670886,57.5316456 164.240506,57.6265823 C164.810127,57.721519 165.443038,57.5316456 166.139241,57.056962 C166.772152,56.6455696 167.21519,56.3607595 167.468354,56.1708861 C167.721519,55.9810127 168.164557,55.664557 168.734177,55.221519 C169.398734,54.7151899 169.778481,54.1772152 169.873418,53.6075949 C169.968354,53.0379747 169.841772,52.5 169.43038,51.9303797 C169.050633,51.3607595 168.544304,51.0443038 168.006329,50.9493671 C167.436709,50.8544304 166.803797,51.0443038 166.107595,51.5189873 C165.791139,51.7088608 165.379747,52.0253165 164.810127,52.4050633 C164.240506,52.8164557 163.797468,53.1329114 163.512658,53.3544304 C162.848101,53.8607595 162.468354,54.3987342 162.373418,54.9683544 C162.278481,55.5379747 162.436709,56.1075949 162.816456,56.6772152 Z" id="Shape"></path>
            <path d="M99.9683544,111.708861 C107.341772,111.708861 113.322785,105.727848 113.322785,98.3544304 C113.322785,97.7848101 113.291139,97.2468354 113.227848,96.7088608 L98.3544304,111.582278 C98.8607595,111.677215 99.3987342,111.708861 99.9683544,111.708861 Z" id="Shape"></path>
            <path d="M133.734177,65.0949367 L133.259494,64.6202532 C131.962025,63.3227848 129.810127,63.3227848 128.512658,64.6202532 L118.797468,74.335443 C95.9177215,65.3481013 73.6075949,72.6582278 49.8417722,96.2658228 C48.3227848,97.7848101 48.3544304,100.411392 49.9050633,101.898734 C58.0063291,109.525316 65.9177215,115.348101 73.7658228,119.367089 L66.1708861,126.962025 C64.8734177,128.259494 64.8734177,130.411392 66.1708861,131.708861 L66.6455696,132.183544 C67.943038,133.481013 70.0949367,133.481013 71.3924051,132.183544 L133.702532,69.8734177 C135.031646,68.5126582 135.031646,66.3924051 133.734177,65.0949367 Z M79.4303797,113.734177 L78.1012658,115.063291 C71.6772152,112.088608 65.0632911,107.753165 58.6392405,102.025316 C56.9303797,100.506329 56.9303797,97.721519 58.6075949,96.2025316 C66.0126582,89.4620253 73.4177215,84.2721519 80.8544304,81.3291139 C73.9240506,90.5379747 73.3544304,103.797468 79.4303797,113.734177 Z M106.424051,86.7088608 C104.525316,85.6329114 102.310127,85.0316456 99.9683544,85.0316456 C97.6265823,85.0316456 95.4113924,85.6329114 93.5126582,86.7088608 C96.0759494,87.056962 98.0379747,89.2405063 98.0379747,91.8987342 C98.0379747,94.8101266 95.6962025,97.1518987 92.7848101,97.1518987 C90.3164557,97.1518987 88.2594937,95.443038 87.6898734,93.1329114 C86.9936709,94.7468354 86.6139241,96.5189873 86.6139241,98.3860759 C86.6139241,100.727848 87.2151899,102.943038 88.2911392,104.841772 L83.6708861,109.493671 C81.8987342,106.455696 80.8544304,102.78481 80.8544304,98.6392405 C80.8544304,81.3291139 99.1772152,71.8037975 111.329114,81.835443 L106.424051,86.7088608 Z" id="Shape"></path>
            <path d="M150.063291,96.2658228 C143.259494,89.4936709 136.582278,84.0822785 129.968354,80 L125.537975,84.4303797 C130.791139,87.4050633 136.075949,91.3924051 141.329114,96.2025316 C143.006329,97.721519 142.974684,100.537975 141.297468,102.025316 C133.797468,108.670886 126.044304,113.481013 118.639241,116.424051 C125.189873,108.164557 126.677215,96.7405063 122.658228,87.3101266 L118.037975,91.9303797 C120.221519,99.1139241 118.670886,107.278481 113.322785,113.037975 C107.278481,119.556962 99.1139241,120.506329 92.4683544,117.5 L85.8227848,124.14557 C107.056962,130.126582 127.911392,122.689873 150.031646,101.867089 C151.582278,100.411392 151.613924,97.7848101 150.063291,96.2658228 Z" id="Shape"></path>
            <path d="M99.9683544,0 C44.7468354,0 0,44.7468354 0,99.9683544 C0,155.189873 44.7468354,199.936709 99.9683544,199.936709 C155.189873,199.936709 199.936709,155.189873 199.936709,99.9683544 C199.936709,44.7468354 155.189873,0 99.9683544,0 Z M177.753165,60.0949367 C177.879747,60.1582278 177.974684,60.221519 178.037975,60.3797468 L178.924051,62.3734177 C179.050633,62.6582278 179.018987,62.943038 178.797468,63.1962025 L174.651899,68.6392405 L181.455696,69.335443 C181.772152,69.3670886 181.993671,69.4936709 182.120253,69.8101266 L183.006329,71.8037975 C183.06962,71.9303797 183.06962,72.056962 183.006329,72.1835443 C182.943038,72.3101266 182.879747,72.4050633 182.721519,72.4683544 L171.202532,77.5 C171.075949,77.5632911 170.949367,77.5632911 170.822785,77.5 C170.696203,77.4367089 170.601266,77.3417722 170.56962,77.2151899 L169.588608,74.9683544 C169.525316,74.8417722 169.525316,74.7151899 169.588608,74.5886076 C169.651899,74.4620253 169.71519,74.3670886 169.841772,74.335443 L176.297468,71.5189873 L171.962025,71.1392405 C171.613924,71.1075949 171.392405,70.9493671 171.297468,70.6962025 L170.886076,69.7468354 C170.791139,69.5253165 170.822785,69.2405063 171.012658,68.9556962 L173.702532,65.5379747 L167.246835,68.3544304 C167.120253,68.4177215 166.993671,68.4177215 166.867089,68.3544304 C166.740506,68.2911392 166.64557,68.1962025 166.613924,68.0696203 L165.632911,65.8227848 C165.56962,65.6962025 165.56962,65.5696203 165.601266,65.443038 C165.632911,65.3164557 165.727848,65.221519 165.85443,65.1582278 L177.373418,60.1265823 C177.5,60.0316456 177.626582,60.0316456 177.753165,60.0949367 Z M168.196203,47.5632911 C169.556962,47.9113924 170.791139,48.8291139 171.835443,50.2848101 C172.879747,51.7405063 173.322785,53.1962025 173.196203,54.5886076 C173.06962,56.0126582 172.310127,57.2151899 170.949367,58.2594937 C170.348101,58.7025316 169.905063,59.0506329 169.588608,59.2721519 C169.272152,59.4936709 168.797468,59.8101266 168.196203,60.1898734 C166.740506,61.1392405 165.348101,61.4240506 164.018987,61.1075949 C162.689873,60.7594937 161.487342,59.8417722 160.443038,58.3544304 C159.398734,56.8670886 158.924051,55.4113924 159.018987,54.0506329 C159.14557,52.6582278 159.873418,51.4556962 161.265823,50.4113924 C161.550633,50.1898734 161.993671,49.8734177 162.626582,49.4303797 C163.227848,48.9873418 163.702532,48.6708861 164.018987,48.4810127 C165.443038,47.5 166.835443,47.2151899 168.196203,47.5632911 Z M156.64557,33.9873418 C156.772152,33.9873418 156.898734,34.0189873 156.993671,34.1139241 L160.664557,37.6265823 C162.056962,38.9556962 162.78481,40.3164557 162.943038,41.6772152 C163.06962,43.0696203 162.563291,44.3987342 161.424051,45.664557 C161.170886,45.9493671 160.822785,46.2974684 160.411392,46.7405063 C159.968354,47.1835443 159.651899,47.5316456 159.367089,47.7848101 C156.835443,50.2531646 154.14557,50.1265823 151.360759,47.4367089 L147.626582,43.8607595 C147.531646,43.7658228 147.5,43.6708861 147.468354,43.5126582 C147.468354,43.3860759 147.5,43.2594937 147.594937,43.164557 L156.297468,34.1139241 C156.392405,34.0506329 156.518987,33.9873418 156.64557,33.9873418 Z M144.177215,25.2531646 C144.303797,25.221519 144.43038,25.2531646 144.556962,25.3164557 L152.183544,30.3481013 C152.310127,30.4113924 152.373418,30.5379747 152.405063,30.664557 C152.436709,30.7911392 152.405063,30.9177215 152.341772,31.0443038 L151.297468,32.6582278 C151.234177,32.7848101 151.107595,32.8481013 150.981013,32.8797468 C150.85443,32.9113924 150.727848,32.8797468 150.601266,32.7848101 L145.506329,29.4303797 L144.14557,31.4873418 L148.892405,34.6202532 C149.018987,34.6835443 149.082278,34.8101266 149.113924,34.9367089 C149.14557,35.0632911 149.113924,35.1898734 149.050633,35.3164557 L148.06962,36.7721519 C148.006329,36.8987342 147.879747,36.9620253 147.753165,36.9936709 C147.626582,37.0253165 147.5,36.9936709 147.373418,36.9303797 L142.626582,33.7974684 L141.234177,35.8860759 L146.455696,39.335443 C146.582278,39.3987342 146.64557,39.5253165 146.677215,39.6518987 C146.708861,39.778481 146.677215,39.9050633 146.613924,40.0316456 L145.56962,41.6455696 C145.506329,41.7721519 145.379747,41.835443 145.253165,41.8670886 C145.126582,41.8987342 145,41.8670886 144.873418,41.7721519 L137.120253,36.6772152 C137.025316,36.6139241 136.93038,36.5189873 136.93038,36.3607595 C136.898734,36.2341772 136.93038,36.1075949 136.993671,36.0126582 L143.892405,25.5379747 C143.955696,25.3481013 144.050633,25.2848101 144.177215,25.2531646 Z M125.221519,30.5696203 L130.221519,19.0506329 C130.28481,18.9240506 130.379747,18.8291139 130.474684,18.7658228 C130.601266,18.7025316 130.727848,18.7025316 130.85443,18.7658228 L139.240506,22.4050633 C139.367089,22.4683544 139.462025,22.5632911 139.525316,22.6898734 C139.588608,22.8164557 139.556962,22.943038 139.525316,23.0696203 L138.765823,24.8417722 C138.702532,24.9683544 138.607595,25.0632911 138.481013,25.0949367 C138.35443,25.1265823 138.227848,25.1265823 138.101266,25.0632911 L132.5,22.6265823 L131.518987,24.8734177 L136.740506,27.1202532 C136.867089,27.1835443 136.962025,27.278481 137.025316,27.4050633 C137.088608,27.5316456 137.056962,27.6582278 137.025316,27.7848101 L136.329114,29.3987342 C136.265823,29.5253165 136.170886,29.6202532 136.044304,29.6835443 C135.917722,29.7468354 135.791139,29.7151899 135.664557,29.6835443 L130.443038,27.4367089 L129.43038,29.7468354 L135.189873,32.2468354 C135.316456,32.3101266 135.411392,32.4050633 135.474684,32.5316456 C135.537975,32.6582278 135.506329,32.7848101 135.474684,32.9113924 L134.71519,34.6835443 C134.651899,34.8101266 134.556962,34.9050633 134.43038,34.9367089 C134.303797,34.9683544 134.177215,34.9683544 134.050633,34.9050633 L125.537975,31.2025316 C125.411392,31.1392405 125.348101,31.0759494 125.28481,30.9493671 C125.158228,30.7911392 125.158228,30.6962025 125.221519,30.5696203 Z M111.740506,27.0886076 L114.588608,14.8734177 C114.620253,14.7468354 114.683544,14.6202532 114.810127,14.556962 C114.905063,14.4936709 115.031646,14.4620253 115.189873,14.4936709 L120.379747,15.6962025 C122.025316,16.0759494 123.259494,16.7721519 124.018987,17.721519 C124.778481,18.7025316 125,19.8734177 124.683544,21.2341772 C124.493671,22.1202532 124.113924,22.8164557 123.544304,23.3227848 C123.006329,23.8291139 122.310127,24.1772152 121.518987,24.3670886 L123.006329,29.556962 C123.037975,29.6518987 123.037975,29.7151899 123.006329,29.778481 C122.974684,29.8734177 122.911392,29.9683544 122.816456,30.0316456 C122.721519,30.0949367 122.626582,30.1265823 122.5,30.0949367 L119.841772,29.4620253 C119.462025,29.3670886 119.272152,29.1455696 119.177215,28.7658228 L118.06962,24.2088608 L116.265823,23.7974684 L115.316456,27.9113924 C115.28481,28.0379747 115.221519,28.164557 115.094937,28.2278481 C114.968354,28.2911392 114.841772,28.3227848 114.71519,28.2911392 L112.120253,27.6898734 C111.993671,27.6582278 111.898734,27.5949367 111.835443,27.4683544 C111.740506,27.3417722 111.708861,27.2151899 111.740506,27.0886076 Z M99.9367089,13.6708861 C99.9367089,13.5443038 100,13.4177215 100.094937,13.3227848 C100.189873,13.2278481 100.316456,13.1962025 100.443038,13.1962025 L109.43038,13.6708861 C109.556962,13.6708861 109.683544,13.7341772 109.778481,13.8291139 C109.873418,13.9240506 109.905063,14.0506329 109.905063,14.2088608 L109.810127,16.2658228 C109.810127,16.3924051 109.746835,16.5189873 109.651899,16.6139241 C109.556962,16.7088608 109.43038,16.7405063 109.272152,16.7405063 L103.35443,16.4240506 L103.196203,19.1139241 L108.734177,19.3987342 C108.860759,19.3987342 108.987342,19.4620253 109.082278,19.556962 C109.177215,19.6518987 109.208861,19.778481 109.208861,19.9367089 L109.113924,21.9936709 C109.113924,22.1202532 109.050633,22.2468354 108.955696,22.3417722 C108.860759,22.4367089 108.734177,22.4683544 108.575949,22.4683544 L103.037975,22.1835443 L102.816456,26.4873418 C102.816456,26.6139241 102.753165,26.7405063 102.658228,26.8037975 C102.563291,26.8987342 102.436709,26.9303797 102.310127,26.9303797 L99.7151899,26.8037975 C99.5886076,26.8037975 99.4620253,26.7405063 99.3987342,26.6455696 C99.335443,26.5506329 99.2721519,26.4240506 99.2721519,26.2974684 L99.9367089,13.6708861 Z M78.1962025,15.9177215 C78.2594937,15.8227848 78.3544304,15.7594937 78.4493671,15.7594937 L80.9493671,15.3164557 C81.1392405,15.2848101 81.2658228,15.3164557 81.4240506,15.3797468 C81.5506329,15.443038 81.6455696,15.5379747 81.7088608,15.6329114 L85.221519,19.9367089 L86.9936709,14.6835443 C87.0253165,14.5886076 87.0886076,14.4620253 87.1835443,14.3670886 C87.278481,14.2721519 87.4050633,14.1772152 87.5949367,14.1455696 L90.0949367,13.7025316 C90.1898734,13.6708861 90.2848101,13.7025316 90.3797468,13.7658228 C90.4746835,13.8291139 90.5379747,13.9240506 90.5379747,14.0189873 C90.5379747,14.0822785 90.5379747,14.1772152 90.5063291,14.2405063 L87.6582278,23.164557 L88.3860759,27.2151899 C88.4177215,27.3417722 88.3860759,27.4683544 88.2911392,27.5949367 C88.2278481,27.6898734 88.1012658,27.7531646 87.9746835,27.7848101 L85.3797468,28.2594937 C85.2531646,28.2911392 85.1265823,28.2594937 85.0316456,28.164557 C84.9050633,28.1012658 84.8417722,27.9746835 84.8417722,27.8481013 L84.1139241,23.7974684 L78.2278481,16.3924051 C78.164557,16.3291139 78.1329114,16.2658228 78.1329114,16.2025316 C78.1012658,16.1392405 78.1012658,16.0126582 78.1962025,15.9177215 Z M64.3670886,20.7911392 C64.4303797,20.664557 64.4936709,20.5696203 64.6518987,20.5379747 L69.6202532,18.6708861 C71.2025316,18.0696203 72.5949367,17.9746835 73.7658228,18.3544304 C74.9367089,18.7341772 75.7594937,19.5886076 76.2658228,20.9177215 C76.5822785,21.7721519 76.6455696,22.5632911 76.4873418,23.2911392 C76.3291139,24.0189873 75.9493671,24.6835443 75.3797468,25.2848101 L79.4936709,28.7974684 C79.556962,28.8607595 79.5886076,28.9240506 79.6202532,28.9873418 C79.6518987,29.0822785 79.6518987,29.1772152 79.6202532,29.3037975 C79.5886076,29.3987342 79.4936709,29.4936709 79.3987342,29.5253165 L76.835443,30.4746835 C76.4873418,30.6012658 76.1708861,30.5379747 75.9177215,30.2531646 L72.4683544,27.056962 L70.7278481,27.721519 L72.2151899,31.6772152 C72.278481,31.8037975 72.2468354,31.9303797 72.2151899,32.056962 C72.1518987,32.1835443 72.056962,32.2468354 71.9303797,32.3101266 L69.4620253,33.2278481 C69.335443,33.2594937 69.2088608,33.2594937 69.0822785,33.1962025 C68.9556962,33.1329114 68.8607595,33.0379747 68.8291139,32.943038 L64.3670886,21.2025316 C64.335443,21.0443038 64.335443,20.9177215 64.3670886,20.7911392 Z M53.0696203,26.835443 L55.6329114,25.2531646 C55.9493671,25.0632911 56.2658228,25.0632911 56.5822785,25.3164557 L66.8670886,33.5759494 C66.8987342,33.6075949 66.9303797,33.6392405 66.9620253,33.7025316 C67.0253165,33.7974684 67.0253165,33.8924051 66.9936709,34.0189873 C66.9620253,34.1455696 66.8987342,34.2088608 66.8037975,34.2721519 L64.6518987,35.5696203 C64.3987342,35.7278481 64.1139241,35.7278481 63.8607595,35.5379747 L62.278481,34.3037975 L57.943038,36.9303797 L58.3227848,38.8924051 C58.3544304,39.2088608 58.2594937,39.4303797 57.9746835,39.5886076 L55.8227848,40.8860759 C55.7278481,40.9493671 55.6329114,40.9493671 55.5063291,40.9177215 C55.3797468,40.8860759 55.3164557,40.8227848 55.2531646,40.7594937 C55.221519,40.6962025 55.1898734,40.6329114 55.1898734,40.6012658 L52.5949367,27.6582278 C52.6265823,27.3417722 52.7531646,27.056962 53.0696203,26.835443 Z M37.4367089,39.2721519 L41.3924051,35.6962025 C42.6582278,34.556962 43.8924051,33.9556962 45.1265823,33.8924051 C46.3607595,33.8291139 47.4367089,34.3037975 48.3860759,35.3481013 C48.9873418,36.0126582 49.335443,36.7405063 49.4620253,37.4683544 C49.5886076,38.1962025 49.4620253,38.9556962 49.1772152,39.7151899 L54.2721519,41.4556962 C54.3670886,41.4873418 54.4303797,41.5189873 54.4620253,41.5822785 C54.5253165,41.6455696 54.556962,41.7405063 54.556962,41.8670886 C54.556962,41.9936709 54.5253165,42.0886076 54.4303797,42.1518987 L52.4050633,43.9873418 C52.1202532,44.2405063 51.8037975,44.2721519 51.4556962,44.1455696 L47.056962,42.4683544 L45.664557,43.7025316 L48.5126582,46.835443 C48.6075949,46.9303797 48.6392405,47.056962 48.6392405,47.1835443 C48.6392405,47.3101266 48.5759494,47.4367089 48.4493671,47.5316456 L46.4873418,49.3037975 C46.3924051,49.3987342 46.2658228,49.4303797 46.1392405,49.4303797 C46.0126582,49.4303797 45.8860759,49.3670886 45.7911392,49.2721519 L37.3734177,39.9683544 C37.278481,39.8734177 37.2468354,39.7468354 37.2468354,39.6202532 C37.278481,39.4620253 37.3417722,39.3670886 37.4367089,39.2721519 Z M26.9303797,52.056962 L30.5379747,47.3101266 C31.5189873,46.0126582 32.5316456,45.2531646 33.5443038,45 C34.556962,44.778481 35.5696203,45.0316456 36.5506329,45.7911392 C37.056962,46.1708861 37.3734177,46.6139241 37.5316456,47.1518987 C37.6898734,47.6898734 37.721519,48.164557 37.6582278,48.6075949 C38.164557,48.3227848 38.7341772,48.1962025 39.3670886,48.2278481 C40,48.2594937 40.6012658,48.4810127 41.1392405,48.8924051 C42.1835443,49.6835443 42.721519,50.6329114 42.7848101,51.7405063 C42.8481013,52.8481013 42.3734177,54.0506329 41.4240506,55.3164557 L37.6898734,60.221519 C37.6265823,60.3164557 37.5,60.3797468 37.3734177,60.4113924 C37.2468354,60.443038 37.1202532,60.4113924 37.0253165,60.3164557 L27.0253165,52.721519 C26.8987342,52.6265823 26.835443,52.5316456 26.835443,52.4050633 C26.8037975,52.3101266 26.835443,52.1835443 26.9303797,52.056962 Z M22.5,59.6518987 L23.8291139,57.2468354 C23.8924051,57.1202532 23.9873418,57.056962 24.1139241,56.9936709 C24.2405063,56.9620253 24.3670886,56.9620253 24.4936709,57.056962 L35.4746835,63.164557 C35.6012658,63.2278481 35.664557,63.3227848 35.6962025,63.4493671 C35.7278481,63.5759494 35.7278481,63.7025316 35.664557,63.8291139 L34.3037975,66.2341772 C34.2405063,66.3607595 34.1455696,66.4240506 34.0189873,66.4556962 C33.8924051,66.4873418 33.7658228,66.4873418 33.6392405,66.4240506 L22.6582278,60.3164557 C22.5316456,60.2531646 22.4683544,60.1582278 22.4367089,60.0316456 C22.4367089,59.9050633 22.4367089,59.778481 22.5,59.6518987 Z M16.8670886,72.3417722 L17.8797468,69.8101266 C17.943038,69.6835443 18.0063291,69.5886076 18.1329114,69.5253165 C18.2594937,69.4620253 18.3860759,69.4620253 18.5126582,69.5253165 L27.8164557,73.2278481 L29.9683544,67.8481013 C30.0316456,67.721519 30.0949367,67.6265823 30.221519,67.5632911 C30.3481013,67.5 30.4746835,67.5 30.6012658,67.5632911 L32.5,68.3227848 C32.6265823,68.3860759 32.721519,68.4493671 32.7848101,68.5759494 C32.8481013,68.7025316 32.8164557,68.8291139 32.7848101,68.9556962 L29.4620253,77.3101266 C29.3987342,77.4367089 29.335443,77.5316456 29.2088608,77.5632911 C29.0822785,77.6265823 28.9556962,77.6265823 28.8291139,77.5632911 L17.1518987,72.9113924 C17.0253165,72.8481013 16.9303797,72.7848101 16.8670886,72.6582278 C16.8037975,72.5316456 16.835443,72.4683544 16.8670886,72.3417722 Z M10.0632911,116.392405 L10.6012658,93.3860759 L21.8987342,89.4303797 L19.5886076,106.835443 L27.3417722,105.158228 L24.8417722,129.018987 L19.8417722,113.765823 L10.0632911,116.392405 Z M28.3544304,155.189873 C28.2278481,155.28481 28.0696203,155.316456 27.9113924,155.316456 C27.7531646,155.28481 27.6265823,155.221519 27.5316456,155.094937 L24.8101266,151.487342 C24.7151899,151.360759 24.6835443,151.202532 24.6835443,151.044304 C24.7151899,150.886076 24.778481,150.759494 24.9050633,150.664557 L36.2974684,142.025316 C36.4240506,141.93038 36.5822785,141.898734 36.7405063,141.898734 C36.8987342,141.93038 37.0253165,141.993671 37.1202532,142.120253 L39.8417722,145.727848 C39.9367089,145.85443 39.9683544,146.012658 39.9683544,146.170886 C39.9367089,146.329114 39.8734177,146.455696 39.7468354,146.550633 L28.3544304,155.189873 Z M44.1455696,171.202532 C43.9873418,171.202532 43.8291139,171.170886 43.7025316,171.075949 L41.0759494,168.765823 C40.8860759,168.607595 40.7911392,168.449367 40.7278481,168.259494 C40.6962025,168.101266 40.6962025,167.943038 40.6962025,167.78481 L41.5822785,161.075949 L37.943038,165.28481 C37.8481013,165.411392 37.6898734,165.474684 37.5316456,165.474684 C37.3734177,165.474684 37.2151899,165.443038 37.0886076,165.348101 L34.0506329,162.721519 C33.9240506,162.626582 33.8607595,162.468354 33.8607595,162.310127 C33.8607595,162.151899 33.8924051,161.993671 33.9873418,161.867089 L43.3860759,151.075949 C43.4810127,150.949367 43.6392405,150.886076 43.7974684,150.886076 C43.9556962,150.886076 44.1139241,150.917722 44.2405063,151.012658 L46.8670886,153.322785 C47.1835443,153.607595 47.3101266,153.924051 47.2151899,154.303797 L46.0126582,161.392405 L49.9683544,156.835443 C50.0632911,156.708861 50.221519,156.64557 50.3797468,156.64557 C50.5379747,156.64557 50.6962025,156.677215 50.8227848,156.803797 L53.8607595,159.43038 C53.9873418,159.525316 54.0506329,159.683544 54.0506329,159.841772 C54.0506329,160 54.0189873,160.158228 53.8924051,160.28481 L44.4936709,171.075949 C44.4303797,171.139241 44.3037975,171.202532 44.1455696,171.202532 Z M68.7658228,172.594937 C68.7025316,172.721519 68.6075949,172.78481 68.4810127,172.848101 C68.3544304,172.879747 68.2278481,172.879747 68.1329114,172.816456 L64.1772152,170.822785 C63.9873418,170.727848 63.8607595,170.632911 63.7658228,170.537975 C63.6708861,170.443038 63.6075949,170.28481 63.5443038,170.126582 C63.3860759,169.746835 63.1012658,169.462025 62.6898734,169.240506 C62.056962,168.924051 61.6455696,168.955696 61.4556962,169.303797 C61.3607595,169.493671 61.4240506,169.746835 61.6772152,170.031646 C61.9303797,170.316456 62.4367089,170.727848 63.2278481,171.265823 C64.4620253,172.120253 65.3797468,172.911392 66.0126582,173.639241 C66.6455696,174.398734 66.9936709,175.126582 67.056962,175.886076 C67.1202532,176.64557 66.9303797,177.468354 66.5189873,178.322785 C66.0443038,179.272152 65.3481013,179.936709 64.4303797,180.348101 C63.5126582,180.759494 62.4367089,180.917722 61.2658228,180.791139 C60.0632911,180.664557 58.8607595,180.28481 57.5949367,179.651899 C56.2025316,178.955696 55.1265823,178.164557 54.335443,177.278481 C53.5759494,176.392405 53.1012658,175.537975 52.943038,174.651899 C52.7848101,173.765823 52.8797468,172.943038 53.2278481,172.151899 C53.2911392,172.025316 53.3860759,171.962025 53.5126582,171.898734 C53.6392405,171.867089 53.7658228,171.867089 53.8924051,171.93038 L57.6582278,173.829114 C57.8481013,173.924051 57.9746835,174.018987 58.0696203,174.113924 C58.164557,174.208861 58.2594937,174.367089 58.3544304,174.588608 C58.5759494,175.094937 58.9873418,175.474684 59.5886076,175.791139 C60.0316456,176.012658 60.4113924,176.139241 60.7278481,176.202532 C61.0443038,176.234177 61.2658228,176.170886 61.3291139,176.012658 C61.4556962,175.791139 61.3607595,175.506329 61.0759494,175.189873 C60.7911392,174.873418 60.1898734,174.43038 59.2405063,173.797468 C56.0759494,171.613924 55.0949367,169.303797 56.3607595,166.867089 C56.8037975,165.981013 57.4683544,165.316456 58.3227848,164.905063 C59.1772152,164.462025 60.1582278,164.303797 61.2658228,164.367089 C62.3734177,164.43038 63.5126582,164.778481 64.6835443,165.379747 C65.9177215,166.012658 66.8987342,166.772152 67.6265823,167.658228 C68.3544304,168.544304 68.7974684,169.462025 68.9873418,170.348101 C69.0822785,171.234177 69.0189873,171.993671 68.7658228,172.594937 Z M88.3860759,173.765823 L87.6582278,177.246835 C87.6265823,177.405063 87.5316456,177.531646 87.4050633,177.626582 C87.278481,177.721519 87.1202532,177.753165 86.9620253,177.721519 L83.3544304,176.962025 L81.2974684,186.898734 C81.2658228,187.056962 81.1708861,187.183544 81.0443038,187.278481 C80.9177215,187.373418 80.7594937,187.405063 80.6012658,187.373418 L76.2658228,186.455696 C76.1075949,186.424051 75.9810127,186.329114 75.8860759,186.202532 C75.7911392,186.075949 75.7594937,185.917722 75.7911392,185.759494 L77.8481013,175.822785 L74.2405063,175.063291 C74.0822785,175.031646 73.9556962,174.936709 73.8607595,174.810127 C73.7658228,174.683544 73.7341772,174.525316 73.7658228,174.367089 L74.4936709,170.886076 C74.5253165,170.727848 74.6202532,170.601266 74.7468354,170.506329 C74.8734177,170.411392 75.0316456,170.379747 75.1898734,170.411392 L87.9113924,173.06962 C88.0696203,173.101266 88.1962025,173.196203 88.2911392,173.322785 C88.3860759,173.449367 88.4177215,173.607595 88.3860759,173.765823 Z M98.7974684,188.449367 C98.7974684,188.607595 98.7341772,188.765823 98.6075949,188.860759 C98.4810127,188.987342 98.3544304,189.018987 98.1962025,189.018987 L93.6708861,188.924051 C93.5126582,188.924051 93.3544304,188.860759 93.2594937,188.734177 C93.1329114,188.607595 93.1012658,188.481013 93.1012658,188.322785 L93.4810127,174.018987 C93.4810127,173.860759 93.5443038,173.702532 93.6708861,173.607595 C93.7974684,173.481013 93.9240506,173.449367 94.0822785,173.449367 L98.6075949,173.575949 C98.7658228,173.575949 98.9240506,173.639241 99.0189873,173.765823 C99.1455696,173.892405 99.1772152,174.018987 99.1772152,174.177215 L98.7974684,188.449367 Z M99.9683544,164.208861 C64.4936709,164.208861 35.7278481,135.443038 35.7278481,99.9683544 C35.7278481,64.4936709 64.4936709,35.7278481 99.9683544,35.7278481 C135.443038,35.7278481 164.208861,64.4936709 164.208861,99.9683544 C164.208861,135.443038 135.443038,164.208861 99.9683544,164.208861 Z M118.670886,175.822785 C118.575949,175.949367 118.449367,176.044304 118.291139,176.075949 L114.651899,176.677215 L116.329114,186.677215 C116.360759,186.835443 116.329114,186.993671 116.234177,187.120253 C116.139241,187.246835 116.012658,187.341772 115.85443,187.373418 L111.487342,188.101266 C111.329114,188.132911 111.170886,188.101266 111.044304,188.006329 C110.917722,187.911392 110.822785,187.78481 110.791139,187.626582 L109.113924,177.626582 L105.474684,178.227848 C105.316456,178.259494 105.158228,178.227848 105.031646,178.132911 C104.905063,178.037975 104.810127,177.911392 104.778481,177.753165 L104.177215,174.240506 C104.14557,174.082278 104.177215,173.924051 104.272152,173.797468 C104.367089,173.670886 104.493671,173.575949 104.651899,173.544304 L117.436709,171.392405 C117.594937,171.360759 117.753165,171.392405 117.879747,171.487342 C118.006329,171.582278 118.101266,171.708861 118.132911,171.867089 L118.734177,175.379747 C118.797468,175.537975 118.765823,175.696203 118.670886,175.822785 Z M139.493671,177.78481 C138.734177,179.240506 137.373418,180.411392 135.348101,181.329114 C133.322785,182.246835 131.518987,182.5 129.936709,182.120253 C128.35443,181.740506 127.120253,180.632911 126.297468,178.765823 L122.563291,170.506329 C122.5,170.348101 122.5,170.221519 122.563291,170.063291 C122.626582,169.905063 122.721519,169.810127 122.879747,169.71519 L126.835443,167.911392 C126.993671,167.848101 127.120253,167.848101 127.278481,167.911392 C127.436709,167.974684 127.531646,168.06962 127.626582,168.227848 L131.329114,176.392405 C131.550633,176.898734 131.867089,177.246835 132.21519,177.373418 C132.594937,177.531646 133.006329,177.468354 133.512658,177.246835 C134.018987,177.025316 134.335443,176.708861 134.462025,176.329114 C134.588608,175.949367 134.525316,175.506329 134.303797,175 L130.601266,166.835443 C130.537975,166.677215 130.537975,166.550633 130.601266,166.392405 C130.664557,166.234177 130.759494,166.139241 130.917722,166.044304 L134.873418,164.240506 C135.031646,164.177215 135.158228,164.177215 135.316456,164.240506 C135.474684,164.303797 135.56962,164.398734 135.664557,164.556962 L139.398734,172.816456 C140.189873,174.683544 140.221519,176.329114 139.493671,177.78481 Z M156.297468,167.658228 C156.265823,167.816456 156.202532,167.943038 156.075949,168.06962 L152.594937,170.822785 C152.468354,170.917722 152.310127,170.949367 152.151899,170.949367 C151.993671,170.917722 151.867089,170.85443 151.740506,170.727848 L145.443038,162.78481 L142.563291,165.063291 C142.436709,165.158228 142.278481,165.189873 142.120253,165.189873 C141.962025,165.158228 141.835443,165.094937 141.708861,164.968354 L139.493671,162.183544 C139.398734,162.056962 139.367089,161.898734 139.367089,161.740506 C139.398734,161.582278 139.462025,161.455696 139.588608,161.329114 L149.778481,153.259494 C149.905063,153.164557 150.063291,153.132911 150.221519,153.132911 C150.379747,153.164557 150.506329,153.227848 150.632911,153.35443 L152.848101,156.139241 C152.943038,156.265823 152.974684,156.424051 152.974684,156.582278 C152.943038,156.740506 152.879747,156.867089 152.753165,156.993671 L149.873418,159.272152 L156.170886,167.21519 C156.265823,167.341772 156.297468,167.468354 156.297468,167.658228 Z M173.35443,149.905063 L165.981013,158.797468 C165.886076,158.924051 165.727848,158.987342 165.56962,159.018987 C165.411392,159.018987 165.253165,158.987342 165.126582,158.892405 L154.113924,149.71519 C153.987342,149.620253 153.924051,149.462025 153.892405,149.303797 C153.892405,149.14557 153.924051,148.987342 154.018987,148.860759 L161.265823,140.126582 C161.360759,140 161.518987,139.936709 161.677215,139.905063 C161.835443,139.905063 161.993671,139.936709 162.120253,140.031646 L164.525316,142.025316 C164.651899,142.120253 164.71519,142.278481 164.746835,142.436709 C164.746835,142.594937 164.71519,142.753165 164.620253,142.879747 L160.379747,148.006329 L161.455696,148.892405 L165.379747,144.14557 C165.474684,144.018987 165.632911,143.955696 165.791139,143.924051 C165.949367,143.892405 166.107595,143.955696 166.234177,144.050633 L168.449367,145.886076 C168.575949,145.981013 168.639241,146.139241 168.670886,146.297468 C168.702532,146.455696 168.639241,146.613924 168.544304,146.740506 L164.620253,151.487342 L165.696203,152.373418 L170.063291,147.120253 C170.158228,146.993671 170.316456,146.93038 170.474684,146.898734 C170.632911,146.898734 170.791139,146.93038 170.917722,147.025316 L173.322785,149.018987 C173.449367,149.113924 173.512658,149.272152 173.544304,149.43038 C173.481013,149.651899 173.449367,149.778481 173.35443,149.905063 Z M175.094937,129.050633 L172.594937,105.189873 L180.348101,106.867089 L178.037975,89.4620253 L189.335443,93.4177215 L189.873418,116.424051 L180.094937,113.829114 L175.094937,129.050633 Z" id="Shape"></path>
            <path d="M89.556962,144.905063 L87.1518987,144.905063 L87.943038,144.113924 C88.5126582,143.670886 88.9556962,143.291139 89.2405063,142.911392 C89.5253165,142.531646 89.6518987,142.120253 89.6518987,141.677215 C89.6518987,141.265823 89.556962,140.917722 89.3670886,140.601266 C89.1772152,140.28481 88.8607595,140.063291 88.4810127,139.873418 C88.1012658,139.71519 87.6265823,139.620253 87.0886076,139.620253 C86.5822785,139.620253 86.1392405,139.71519 85.7278481,139.905063 C85.3164557,140.094937 85.0316456,140.379747 84.8101266,140.727848 C84.5886076,141.075949 84.4620253,141.455696 84.4620253,141.867089 C84.4620253,141.93038 84.4936709,141.962025 84.5253165,141.993671 C84.556962,142.025316 84.6202532,142.056962 84.6835443,142.056962 L85.9493671,142.056962 C86.1392405,142.056962 86.2341772,141.993671 86.2658228,141.835443 C86.2974684,141.613924 86.3924051,141.424051 86.5189873,141.265823 C86.6455696,141.107595 86.835443,141.044304 87.0886076,141.044304 C87.5632911,141.044304 87.7848101,141.265823 87.7848101,141.740506 C87.7848101,141.93038 87.6898734,142.120253 87.5316456,142.310127 C87.3734177,142.5 87.1518987,142.753165 86.835443,143.006329 C86.5189873,143.259494 86.0759494,143.607595 85.4746835,144.082278 L84.5886076,144.936709 C84.4303797,145.063291 84.335443,145.221519 84.335443,145.411392 L84.335443,146.107595 C84.335443,146.170886 84.3670886,146.234177 84.3987342,146.265823 C84.4303797,146.297468 84.4936709,146.329114 84.556962,146.329114 L89.556962,146.329114 C89.6202532,146.329114 89.6835443,146.297468 89.7151899,146.265823 C89.7468354,146.202532 89.778481,146.170886 89.778481,146.107595 L89.778481,145.094937 C89.778481,145.031646 89.7468354,144.968354 89.7151899,144.936709 C89.6835443,144.905063 89.6202532,144.905063 89.556962,144.905063 Z" id="Shape"></path>
            <path d="M98.7974684,140.85443 C98.5759494,140.474684 98.2911392,140.189873 97.8797468,139.968354 C97.4683544,139.746835 96.9936709,139.651899 96.4240506,139.651899 C95.8544304,139.651899 95.3481013,139.746835 94.9683544,139.968354 C94.556962,140.189873 94.2721519,140.474684 94.0506329,140.85443 C93.8291139,141.234177 93.7341772,141.64557 93.7025316,142.120253 C93.7025316,142.468354 93.6708861,142.78481 93.6708861,143.06962 C93.6708861,143.35443 93.6708861,143.639241 93.7025316,143.987342 C93.7341772,144.746835 93.9873418,145.348101 94.4620253,145.791139 C94.9050633,146.234177 95.5696203,146.487342 96.4556962,146.487342 C97.3417722,146.487342 98.0063291,146.234177 98.4493671,145.791139 C98.8924051,145.348101 99.1455696,144.746835 99.2088608,143.987342 C99.2088608,143.829114 99.2405063,143.512658 99.2405063,143.06962 C99.2405063,142.626582 99.2405063,142.310127 99.2088608,142.120253 C99.1139241,141.64557 98.9873418,141.202532 98.7974684,140.85443 Z M97.278481,143.924051 C97.278481,144.272152 97.1835443,144.556962 97.0253165,144.746835 C96.8670886,144.936709 96.6455696,145.031646 96.3607595,145.031646 C95.7911392,145.031646 95.4746835,144.651899 95.443038,143.924051 C95.443038,143.734177 95.443038,143.449367 95.443038,143.037975 C95.443038,142.626582 95.443038,142.341772 95.443038,142.151899 C95.4746835,141.424051 95.7911392,141.044304 96.3607595,141.044304 C96.6455696,141.044304 96.8670886,141.139241 97.0253165,141.329114 C97.1835443,141.518987 97.2468354,141.803797 97.278481,142.151899 C97.278481,142.310127 97.3101266,142.626582 97.3101266,143.037975 C97.3101266,143.449367 97.3101266,143.765823 97.278481,143.924051 Z" id="Shape"></path>
            <path d="M106.518987,139.746835 L105.253165,139.746835 C105.158228,139.746835 105.094937,139.778481 105.031646,139.810127 L102.816456,141.518987 C102.753165,141.582278 102.721519,141.64557 102.721519,141.740506 C102.721519,141.803797 102.721519,141.835443 102.753165,141.898734 L103.35443,142.658228 C103.417722,142.721519 103.481013,142.78481 103.544304,142.78481 C103.575949,142.78481 103.639241,142.78481 103.702532,142.721519 L104.968354,141.740506 L104.968354,146.170886 C104.968354,146.234177 105,146.297468 105.031646,146.329114 C105.063291,146.360759 105.126582,146.392405 105.189873,146.392405 L106.487342,146.392405 C106.550633,146.392405 106.613924,146.360759 106.677215,146.329114 C106.740506,146.297468 106.740506,146.234177 106.740506,146.170886 L106.740506,140 C106.740506,139.936709 106.708861,139.873418 106.677215,139.841772 C106.64557,139.746835 106.582278,139.746835 106.518987,139.746835 Z" id="Shape"></path>
            <path d="M115.316456,139.746835 L110.822785,139.746835 C110.759494,139.746835 110.696203,139.778481 110.632911,139.810127 C110.601266,139.873418 110.56962,139.905063 110.56962,140 L110.56962,140.981013 C110.56962,141.044304 110.601266,141.107595 110.632911,141.170886 C110.664557,141.202532 110.727848,141.234177 110.822785,141.234177 L113.639241,141.234177 L111.455696,146.107595 C111.455696,146.139241 111.424051,146.170886 111.424051,146.202532 C111.424051,146.265823 111.455696,146.297468 111.487342,146.360759 C111.518987,146.392405 111.582278,146.424051 111.64557,146.424051 L112.943038,146.424051 C113.101266,146.424051 113.227848,146.360759 113.291139,146.202532 L115.474684,141.360759 C115.474684,141.360759 115.506329,141.297468 115.537975,141.202532 C115.56962,141.107595 115.56962,141.012658 115.56962,140.917722 L115.56962,140.031646 C115.56962,139.968354 115.537975,139.905063 115.506329,139.841772 C115.443038,139.778481 115.379747,139.746835 115.316456,139.746835 Z" id="Shape"></path>
            <path d="M88.4810127,56.7088608 L93.0379747,56.7088608 C93.1012658,56.7088608 93.164557,56.6772152 93.2278481,56.6455696 C93.2911392,56.6139241 93.2911392,56.5506329 93.2911392,56.4873418 L93.2911392,55.5379747 C93.2911392,55.4746835 93.2594937,55.4113924 93.2278481,55.3481013 C93.1962025,55.3164557 93.1329114,55.2848101 93.0379747,55.2848101 L89.9683544,55.2848101 L89.9683544,54.0506329 L92.7531646,54.0506329 C92.8164557,54.0506329 92.8797468,54.0189873 92.943038,53.9873418 C92.9746835,53.9240506 93.0063291,53.8924051 93.0063291,53.7974684 L93.0063291,52.943038 C93.0063291,52.8797468 92.9746835,52.8164557 92.943038,52.7531646 C92.8797468,52.6898734 92.8481013,52.6898734 92.7531646,52.6898734 L89.9683544,52.6898734 L89.9683544,51.4873418 L92.9746835,51.4873418 C93.0379747,51.4873418 93.1012658,51.4556962 93.164557,51.4240506 C93.2278481,51.3924051 93.2278481,51.3291139 93.2278481,51.2658228 L93.2278481,50.3164557 C93.2278481,50.2531646 93.1962025,50.1898734 93.164557,50.1265823 C93.1329114,50.0949367 93.0696203,50.0632911 92.9746835,50.0632911 L88.4810127,50.0632911 C88.4177215,50.0632911 88.3544304,50.0949367 88.3227848,50.1265823 C88.2911392,50.1898734 88.2594937,50.221519 88.2594937,50.3164557 L88.2594937,56.4873418 C88.2594937,56.5506329 88.2911392,56.6139241 88.3227848,56.6455696 C88.3860759,56.7088608 88.4177215,56.7088608 88.4810127,56.7088608 Z" id="Shape"></path>
            <path d="M98.2278481,56.5506329 C98.6708861,56.7405063 99.1772152,56.8037975 99.8101266,56.8037975 C100.379747,56.8037975 100.886076,56.7088608 101.297468,56.5506329 C101.740506,56.3924051 102.088608,56.1392405 102.310127,55.8227848 C102.563291,55.5063291 102.689873,55.1265823 102.689873,54.7151899 C102.689873,54.335443 102.594937,53.9873418 102.436709,53.7341772 C102.278481,53.4810127 101.993671,53.2594937 101.64557,53.1012658 C101.297468,52.943038 100.822785,52.8164557 100.221519,52.6898734 C99.7151899,52.5949367 99.335443,52.4683544 99.1455696,52.3734177 C98.9556962,52.278481 98.8607595,52.1202532 98.8607595,51.9303797 C98.8607595,51.7405063 98.9240506,51.6139241 99.0822785,51.5189873 C99.2405063,51.4240506 99.4303797,51.3607595 99.6835443,51.3607595 C99.9050633,51.3607595 100.126582,51.3924051 100.28481,51.4873418 C100.443038,51.5822785 100.537975,51.6772152 100.56962,51.835443 C100.632911,51.9620253 100.759494,51.9936709 100.886076,51.9936709 L102.21519,51.9936709 C102.278481,51.9936709 102.310127,51.9620253 102.373418,51.9303797 C102.405063,51.8987342 102.436709,51.835443 102.436709,51.7721519 C102.436709,51.4873418 102.310127,51.2025316 102.088608,50.9177215 C101.867089,50.6329114 101.550633,50.3797468 101.139241,50.1898734 C100.727848,50 100.253165,49.9050633 99.6835443,49.9050633 C99.1455696,49.9050633 98.6708861,50 98.2911392,50.1582278 C97.8797468,50.3164557 97.5949367,50.5696203 97.3734177,50.8860759 C97.1518987,51.2025316 97.056962,51.5506329 97.056962,51.9303797 C97.056962,52.5 97.2468354,52.943038 97.6265823,53.2594937 C98.0063291,53.5759494 98.5759494,53.7974684 99.335443,53.9556962 C99.7151899,54.0506329 100.031646,54.1139241 100.253165,54.1772152 C100.474684,54.2405063 100.601266,54.335443 100.696203,54.3987342 C100.791139,54.4936709 100.85443,54.5886076 100.85443,54.7151899 C100.85443,54.9050633 100.759494,55.0316456 100.56962,55.1582278 C100.379747,55.2848101 100.126582,55.3164557 99.778481,55.3164557 C99.4936709,55.3164557 99.2405063,55.2531646 99.0822785,55.1582278 C98.8924051,55.0632911 98.7658228,54.9367089 98.7025316,54.778481 C98.6392405,54.7151899 98.6075949,54.6835443 98.5443038,54.6518987 C98.4810127,54.6202532 98.4493671,54.6202532 98.3544304,54.6202532 L97.0886076,54.6202532 C97.0253165,54.6202532 96.9936709,54.6518987 96.9303797,54.6835443 C96.8987342,54.7151899 96.8670886,54.778481 96.8670886,54.8417722 C96.8670886,55.1898734 96.9936709,55.5063291 97.2151899,55.7911392 C97.4683544,56.1392405 97.8164557,56.3607595 98.2278481,56.5506329 Z" id="Shape"></path>
            <path d="M106.265823,51.6139241 L107.943038,51.6139241 L107.943038,56.4873418 C107.943038,56.5506329 107.974684,56.6139241 108.006329,56.6455696 C108.06962,56.6772152 108.101266,56.7088608 108.196203,56.7088608 L109.525316,56.7088608 C109.588608,56.7088608 109.651899,56.6772152 109.71519,56.6455696 C109.778481,56.6139241 109.778481,56.5506329 109.778481,56.4873418 L109.778481,51.6139241 L111.455696,51.6139241 C111.518987,51.6139241 111.582278,51.5822785 111.64557,51.5506329 C111.677215,51.5189873 111.708861,51.4556962 111.708861,51.3924051 L111.708861,50.3164557 C111.708861,50.2531646 111.677215,50.1898734 111.64557,50.1265823 C111.613924,50.0949367 111.550633,50.0632911 111.455696,50.0632911 L106.297468,50.0632911 C106.234177,50.0632911 106.170886,50.0949367 106.107595,50.1265823 C106.044304,50.1898734 106.044304,50.221519 106.044304,50.3164557 L106.044304,51.3924051 C106.044304,51.4556962 106.075949,51.5189873 106.107595,51.5506329 C106.139241,51.6139241 106.202532,51.6139241 106.265823,51.6139241 Z" id="Shape"></path>
        </g>
    </g>
</svg>