<svg id="Layer_1" data-name="Layer 1" xmlns="http://www.w3.org/2000/svg" viewBox="0 0 631.8 631.8"><title>LFP Logo- 2018</title><path d="M279.43,574.1a4.89,4.89,0,0,0-3.88.44,6.11,6.11,0,0,0-2.47,3.77q-.54,1.82-1.52,5.61c-.66,2.52-1.14,4.45-1.44,5.77a6.25,6.25,0,0,0,.29,4.49,5.51,5.51,0,0,0,7.1,1.85,6.23,6.23,0,0,0,2.44-3.78q1.16-3.9,1.63-5.73t1.33-5.65a6.1,6.1,0,0,0-.32-4.5A4.86,4.86,0,0,0,279.43,574.1Z" transform="translate(-25.49 -20)"/><path d="M305.09,198.2h14.4a1.42,1.42,0,0,0,.6-.2c.2-.1.2-.3.2-.5v-3a1.42,1.42,0,0,0-.2-.6.85.85,0,0,0-.6-.2h-9.7v-3.9h8.8a1.42,1.42,0,0,0,.6-.2,1.07,1.07,0,0,0,.2-.6v-2.7a1.42,1.42,0,0,0-.2-.6c-.2-.2-.3-.2-.6-.2h-8.8v-3.8h9.5a1.42,1.42,0,0,0,.6-.2c.2-.1.2-.3.2-.5v-3a1.42,1.42,0,0,0-.2-.6.85.85,0,0,0-.6-.2h-14.2a.76.76,0,0,0-.5.2,1.07,1.07,0,0,0-.2.6v19.5a.76.76,0,0,0,.2.5A.55.55,0,0,0,305.09,198.2Z" transform="translate(-25.49 -20)"/><path d="M335.89,197.7a12.5,12.5,0,0,0,5,.8,13.19,13.19,0,0,0,4.7-.8,6.49,6.49,0,0,0,3.2-2.3,5.5,5.5,0,0,0,1.2-3.5,5.94,5.94,0,0,0-.8-3.1,5.7,5.7,0,0,0-2.5-2,22.73,22.73,0,0,0-4.5-1.3,14.28,14.28,0,0,1-3.4-1,1.51,1.51,0,0,1-.9-1.4,1.36,1.36,0,0,1,.7-1.3,3.56,3.56,0,0,1,1.9-.5,3.81,3.81,0,0,1,1.9.4,1.62,1.62,0,0,1,.9,1.1,1,1,0,0,0,1,.5h4.2c.2,0,.3-.1.5-.2a.76.76,0,0,0,.2-.5,4.47,4.47,0,0,0-1.1-2.7,8,8,0,0,0-3-2.3,10.78,10.78,0,0,0-4.6-.9,11.52,11.52,0,0,0-4.4.8,6.11,6.11,0,0,0-2.9,2.3,5.58,5.58,0,0,0-1,3.3,5.17,5.17,0,0,0,1.8,4.2,12.38,12.38,0,0,0,5.4,2.2c1.2.3,2.2.5,2.9.7a4.47,4.47,0,0,1,1.4.7,1.39,1.39,0,0,1,.5,1,1.62,1.62,0,0,1-.9,1.4,5.75,5.75,0,0,1-4.7,0,2.33,2.33,0,0,1-1.2-1.2,1.76,1.76,0,0,0-.5-.4,1.08,1.08,0,0,0-.6-.1h-4c-.2,0-.3.1-.5.2a.76.76,0,0,0-.2.5,4.82,4.82,0,0,0,1.1,3A7.75,7.75,0,0,0,335.89,197.7Z" transform="translate(-25.49 -20)"/><path d="M361.29,182.1h5.3v15.4a.76.76,0,0,0,.2.5,1.07,1.07,0,0,0,.6.2h4.2a1.42,1.42,0,0,0,.6-.2c.2-.1.2-.3.2-.5V182.1h5.3a1.42,1.42,0,0,0,.6-.2.76.76,0,0,0,.2-.5V178a1.42,1.42,0,0,0-.2-.6.85.85,0,0,0-.6-.2h-16.3a1.42,1.42,0,0,0-.6.2c-.2.2-.2.3-.2.6v3.4a.76.76,0,0,0,.2.5C360.89,182.1,361.09,182.1,361.29,182.1Z" transform="translate(-25.49 -20)"/><path d="M239.71,103.22a5.52,5.52,0,0,0,3.12-2.77,4.65,4.65,0,0,0-.17-3.81A5,5,0,0,0,240,93.82a5.31,5.31,0,0,0-4.19.32l-6.16,2.67,3.94,9.09Z" transform="translate(-25.49 -20)"/><path d="M132.82,216.75a4.91,4.91,0,0,0,.66-3.85,4.6,4.6,0,0,0-2.24-2.79,4.64,4.64,0,0,0-3.61-.54,4.93,4.93,0,0,0-3,2.48l-4,7,8.17,4.69Z" transform="translate(-25.49 -20)"/><path d="M151.1,166.23a5.58,5.58,0,0,0,1.7-3.81,4.68,4.68,0,0,0-1.73-3.41,5,5,0,0,0-3.63-1.44,5.37,5.37,0,0,0-3.69,2l-4.5,5,7.34,6.64Z" transform="translate(-25.49 -20)"/><polygon points="174.24 113.47 160.94 104.19 165.48 119.76 174.24 113.47"/><path d="M117.57,208.61a4.72,4.72,0,0,0,.68-3.59,4.25,4.25,0,0,0-2.11-2.61,4,4,0,0,0-3.21-.48,4.71,4.71,0,0,0-2.75,2.43l-3.77,6.57,7.38,4.25Z" transform="translate(-25.49 -20)"/><path d="M535.42,190.29q2.54.28,5.7-2.1,1.43-1,3.58-2.73c1.43-1.15,2.56-2.12,3.38-2.88q2.91-2.51,3.1-5.19a8.22,8.22,0,0,0-2.2-5.65l-3.61-4.48-18.69,15.06,3.8,4.72C532.08,189,533.72,190.1,535.42,190.29Z" transform="translate(-25.49 -20)"/><path d="M419.49,93.06a4.71,4.71,0,0,0,2.31-3,5,5,0,0,0-.28-3.89,5.37,5.37,0,0,0-3.42-2.44l-6.46-1.89-2.78,9.5,6.45,1.89A5.58,5.58,0,0,0,419.49,93.06Z" transform="translate(-25.49 -20)"/><path d="M572.73,232.22c.9-.45,2.33-1.2,4.3-2.27q3.45-1.84,4.3-4.36a6.72,6.72,0,0,0-.54-5.35,6.82,6.82,0,0,0-3.95-3.72c-1.68-.56-3.71-.3-6.07.78q-1.54.69-4.39,2.1T562,221.67c-2.29,1.23-3.73,2.68-4.3,4.36a7.73,7.73,0,0,0,4.49,9.07c1.69.56,3.71.3,6.08-.78C570.33,233.36,571.84,232.66,572.73,232.22Z" transform="translate(-25.49 -20)"/><path d="M165.62,508.42,160.17,514l3.42,3.38a3.05,3.05,0,0,0,2.22.86,3.78,3.78,0,0,0,2.68-1.34,5.12,5.12,0,0,0,1.43-2.52,2.63,2.63,0,0,0-.88-2.54Z" transform="translate(-25.49 -20)"/><path d="M219.93,550l-4.34-2.49-3.7,6.43,4.34,2.49a2.83,2.83,0,0,0,2.53.29,3.94,3.94,0,0,0,2-1.81,4.69,4.69,0,0,0,.66-2.73A2.69,2.69,0,0,0,219.93,550Z" transform="translate(-25.49 -20)"/><path d="M341.39,20c-174.5,0-315.9,141.4-315.9,315.9s141.4,315.9,315.9,315.9,315.9-141.4,315.9-315.9S515.89,20,341.39,20ZM604.53,256.08a1.49,1.49,0,0,1,.68,1l1.53,6.68a2.26,2.26,0,0,1-.8,2.42l-15.69,14.28,20.36,6.09a2.27,2.27,0,0,1,1.77,1.83l1.53,6.67a1.56,1.56,0,0,1-.19,1.2,1.5,1.5,0,0,1-1,.69l-38,8.69a1.4,1.4,0,0,1-1.15-.2,1.63,1.63,0,0,1-.66-1l-1.72-7.5a1.5,1.5,0,0,1,.2-1.14,1.43,1.43,0,0,1,.93-.67l21.28-4.88-13-3.72a2.4,2.4,0,0,1-1.82-1.76l-.72-3.19a2.53,2.53,0,0,1,.87-2.38l10.13-9-21.29,4.88a1.4,1.4,0,0,1-1.15-.21,1.58,1.58,0,0,1-.66-1l-1.71-7.45a1.6,1.6,0,0,1,.16-1.18,1.44,1.44,0,0,1,1-.69l38-8.69A1.54,1.54,0,0,1,604.53,256.08ZM545.14,153.36a1.45,1.45,0,0,1,1,.56l10,12.41q5.63,7,5.45,13.5t-6.19,11.68c-.88.76-2.06,1.75-3.56,3s-2.69,2.14-3.59,2.81q-13.17,9.85-24.62-4.35l-10.19-12.64a1.5,1.5,0,0,1-.31-1.11,1.44,1.44,0,0,1,.53-1L544,153.72A1.54,1.54,0,0,1,545.14,153.36ZM504.47,117.1a1.41,1.41,0,0,1,1.13.34l22.13,18.11a1.52,1.52,0,0,1,.23,2.2l-3.76,4.6a1.42,1.42,0,0,1-1,.55,1.64,1.64,0,0,1-1.14-.39l-14.81-12.12-4.83,5.9,13.79,11.28a1.55,1.55,0,0,1,.58,1.05,1.51,1.51,0,0,1-.35,1.15L513,154a1.5,1.5,0,0,1-1.05.57,1.55,1.55,0,0,1-1.16-.36L497,142.93,492,149l15.19,12.43a1.53,1.53,0,0,1,.58,1.06,1.47,1.47,0,0,1-.35,1.15l-3.76,4.6a1.39,1.39,0,0,1-1,.54,1.56,1.56,0,0,1-1.13-.38L479,149.94a1.56,1.56,0,0,1-.22-2.12l24.66-30.13A1.54,1.54,0,0,1,504.47,117.1Zm-65.8,7.63L457,90.36a1.56,1.56,0,0,1,.9-.78,1.39,1.39,0,0,1,1.17.11l25.25,13.43a1.51,1.51,0,0,1,.77.93,1.47,1.47,0,0,1-.12,1.19l-2.79,5.24a1.37,1.37,0,0,1-.91.74,1.54,1.54,0,0,1-1.18-.15l-16.9-9-3.58,6.73,15.72,8.37a1.54,1.54,0,0,1,.78.92,1.49,1.49,0,0,1-.12,1.2l-2.57,4.82a1.48,1.48,0,0,1-.92.76,1.53,1.53,0,0,1-1.2-.13l-15.72-8.36-3.67,6.88,17.33,9.22a1.56,1.56,0,0,1,.78.93,1.47,1.47,0,0,1-.12,1.19l-2.79,5.24a1.39,1.39,0,0,1-.91.74,1.57,1.57,0,0,1-1.19-.15L439.3,126.77a1.49,1.49,0,0,1-.72-.9A1.41,1.41,0,0,1,438.67,124.73Zm-46.91-15.57L402.7,71.79a1.62,1.62,0,0,1,.72-1,1.46,1.46,0,0,1,1.18-.12l16,4.68q7.68,2.25,11,7t1.48,11a12.55,12.55,0,0,1-3.9,6.3,12.85,12.85,0,0,1-6.48,2.85l3.73,16.35a1.44,1.44,0,0,1,0,.69,1.23,1.23,0,0,1-.6.73,1.2,1.2,0,0,1-1,.12l-8.19-2.4a2.52,2.52,0,0,1-1.93-2.26L412,101.39l-5.58-1.64-3.69,12.61a1.42,1.42,0,0,1-.74.91,1.65,1.65,0,0,1-1.2.09l-8-2.34a1.4,1.4,0,0,1-.89-.73A1.38,1.38,0,0,1,391.76,109.16ZM347.91,93.83a4.08,4.08,0,0,0,.2-2.37l2.22-26.23a1.55,1.55,0,0,1,.52-1.07A1.41,1.41,0,0,1,352,63.8l28.07,2.38a1.5,1.5,0,0,1,1.07.55,1.46,1.46,0,0,1,.36,1.14L381,74.21a1.42,1.42,0,0,1-.55,1,1.58,1.58,0,0,1-1.15.32L360.78,74l-.71,8.31,17.27,1.47a1.57,1.57,0,0,1,1.08.54,1.53,1.53,0,0,1,.35,1.15l-.53,6.33a1.4,1.4,0,0,1-.55,1,1.58,1.58,0,0,1-1.15.32L359.27,91.7,358.15,105a1.52,1.52,0,0,1-.51,1,1.46,1.46,0,0,1-1.13.36l-8.09-.69A1.54,1.54,0,0,1,347,104Zm-6.52,39.07c112.1,0,203,90.9,203,203s-90.9,203-203,203-203-90.9-203-203S229.29,132.9,341.39,132.9ZM267,73.7a1.24,1.24,0,0,1,.78-.55l7.84-1.59a2.18,2.18,0,0,1,1.45.13,2.58,2.58,0,0,1,1,.73L289.29,85.5l5.26-16.43a2.63,2.63,0,0,1,.59-1,2.19,2.19,0,0,1,1.28-.69l7.84-1.59a1.25,1.25,0,0,1,.94.21,1.21,1.21,0,0,1,.56.77,1.34,1.34,0,0,1-.05.69l-8.59,28.06L299.67,108a1.41,1.41,0,0,1-.24,1.15,1.61,1.61,0,0,1-1,.63l-8.13,1.65a1.47,1.47,0,0,1-1.13-.23,1.43,1.43,0,0,1-.66-.94L286,97.75,267.12,75.24a1.23,1.23,0,0,1-.31-.61A1.16,1.16,0,0,1,267,73.7Zm-50.74,20a1.43,1.43,0,0,1,.82-.85l15.28-6.63q7.34-3.19,12.91-1.68t8.18,7.5a12.54,12.54,0,0,1,1,7.34,12.92,12.92,0,0,1-3.16,6.34l13.34,10.17a1.45,1.45,0,0,1,.42.54,1.22,1.22,0,0,1,0,.94,1.24,1.24,0,0,1-.68.72l-7.84,3.4a2.52,2.52,0,0,1-2.92-.5l-11.3-9.29L237.05,114,242.28,126a1.41,1.41,0,0,1,0,1.17,1.53,1.53,0,0,1-.86.83l-7.61,3.31a1.48,1.48,0,0,1-1.15,0,1.46,1.46,0,0,1-.84-.79l-15.5-35.72A1.52,1.52,0,0,1,216.28,93.67Zm-39.86,24.7,7.68-5.52a2.38,2.38,0,0,1,3,0l33.9,23a1.86,1.86,0,0,1,.37.4,1.37,1.37,0,0,1-.3,1.77l-6.4,4.59a2.09,2.09,0,0,1-2.44.13L207,139.3l-12.89,9.26,1.62,6a2.1,2.1,0,0,1-.9,2.28l-6.4,4.59a1.34,1.34,0,0,1-1.77-.28,1.51,1.51,0,0,1-.26-.47l-11-39.48A2.36,2.36,0,0,1,176.42,118.37Zm-50.21,47.74,11.17-12.36q5.37-5.92,11.06-6.87T159,150.33a12.5,12.5,0,0,1,4,6.25,13.07,13.07,0,0,1-.25,7.08l16.34,3.75a1.35,1.35,0,0,1,.61.31,1.23,1.23,0,0,1,.41.85,1.22,1.22,0,0,1-.32.94L174,175.84a2.54,2.54,0,0,1-2.87.76L157,172.81l-3.9,4.32,9.75,8.81a1.37,1.37,0,0,1,.5,1.06,1.6,1.6,0,0,1-.44,1.11l-5.56,6.16a1.51,1.51,0,0,1-1,.49,1.43,1.43,0,0,1-1.08-.37l-28.89-26.11a1.53,1.53,0,0,1-.54-1.06A1.43,1.43,0,0,1,126.21,166.11ZM94.46,215.46l9.33-16.23q3.83-6.67,8.41-8.38t9.57,1.17a8.21,8.21,0,0,1,3.55,3.82,10.07,10.07,0,0,1,1,4.49,10.11,10.11,0,0,1,10.88-.52q5.26,3,6.16,8.19t-2.83,11.68l-9.6,16.7a1.49,1.49,0,0,1-.92.7,1.45,1.45,0,0,1-1.14-.13l-33.76-19.4a1.58,1.58,0,0,1-.75-.92A1.43,1.43,0,0,1,94.46,215.46Zm-25.35,80.7,1.65-8.32a1.49,1.49,0,0,1,.62-1,1.44,1.44,0,0,1,1.14-.2l30.49,6,3.53-17.83a1.57,1.57,0,0,1,.66-1,1.52,1.52,0,0,1,1.18-.23l6.24,1.24a1.4,1.4,0,0,1,1,.65,1.6,1.6,0,0,1,.19,1.18l-5.47,27.64a1.46,1.46,0,0,1-.65.95,1.41,1.41,0,0,1-1.12.24l-38.25-7.57a1.42,1.42,0,0,1-1-.66A1.48,1.48,0,0,1,69.11,296.16ZM114.79,473.8,99,425.7l-30.9,8.2,1.7-72.7,35.7-12.5-7.3,55,24.5-5.3Zm9.07-220.12-3,8.13a1.48,1.48,0,0,1-.79.84,1.42,1.42,0,0,1-1.14.06L82.34,249.26a1.42,1.42,0,0,1-.86-.8,1.5,1.5,0,0,1,0-1.14l3-8.13a1.5,1.5,0,0,1,.77-.88,1.46,1.46,0,0,1,1.16,0L123,251.74a1.52,1.52,0,0,1,.84.76A1.42,1.42,0,0,1,123.86,253.68Zm44.55,280.84q-6.78-.94-13.67-7.73l-3.42-3.38-9.39,9.52a1.88,1.88,0,0,1-2.65.05l-10.06-9.93a1.75,1.75,0,0,1-.53-1.31,1.82,1.82,0,0,1,.54-1.33L161,488.21a1.85,1.85,0,0,1,1.32-.56,1.74,1.74,0,0,1,1.32.52l14.8,14.59q6.84,6.75,7.72,13.72t-5.06,13Q175.2,535.45,168.41,534.52Zm67.74,29.4a15.8,15.8,0,0,1-5.72,6,16.45,16.45,0,0,1-7.54,2.25l-.63,18a1.9,1.9,0,0,1-.2.78,1.49,1.49,0,0,1-.93.71,1.44,1.44,0,0,1-1.15-.13l-12.2-7a3,3,0,0,1-1.39-1.49,3.18,3.18,0,0,1-.22-1.62l1.54-14.53-2.44-1.4-6.66,11.59a1.9,1.9,0,0,1-2.55.72l-11.66-6.7a1.78,1.78,0,0,1-.85-1.13,1.83,1.83,0,0,1,.19-1.43l22.51-39.22a1.91,1.91,0,0,1,1.14-.88,1.77,1.77,0,0,1,1.41.17l17.61,10.11q8.57,4.92,11.14,11.6T236.15,563.92Zm64.06,21.3q-.85,3.82-1.44,6.07t-1.66,5.85q-2.73,8.85-9.85,12t-17.09.55q-10-2.59-14.65-8.81t-2.76-15.25c.27-1.23.76-3.21,1.46-5.92s1.26-4.75,1.64-6a19.33,19.33,0,0,1,5.63-9.24,18.24,18.24,0,0,1,9.39-4.35A32.19,32.19,0,0,1,293.72,566a18.33,18.33,0,0,1,6.08,8.38A19.36,19.36,0,0,1,300.21,585.22Zm62,24.92a17.24,17.24,0,0,1-7.85,6.4,30.54,30.54,0,0,1-11.46,2.22,28.08,28.08,0,0,1-10.73-1.85,19,19,0,0,1-8.06-5.79,14.92,14.92,0,0,1-3.24-9.15,1.53,1.53,0,0,1,.43-1.09,1.4,1.4,0,0,1,1.06-.47l14-.24a2.47,2.47,0,0,1,1.69.5,5.35,5.35,0,0,1,1.16,1.7,5.24,5.24,0,0,0,1.58,2.14,4,4,0,0,0,2.44.59,3.63,3.63,0,0,0,3-1.34,7.21,7.21,0,0,0,1-4.4l-.27-16.16-20.37.33a1.79,1.79,0,0,1-1.32-.53,1.86,1.86,0,0,1-.57-1.33l-.17-10.42a1.82,1.82,0,0,1,.53-1.34,1.73,1.73,0,0,1,1.29-.58l36.29-.6a1.77,1.77,0,0,1,1.31.53,1.86,1.86,0,0,1,.57,1.32l.48,29A18,18,0,0,1,362.17,610.14Zm71.92-7.59a1.77,1.77,0,0,1-1.11.88l-34.5,9.35a1.76,1.76,0,0,1-1.41-.2,1.79,1.79,0,0,1-.87-1.14l-11.83-43.65a1.86,1.86,0,0,1,.18-1.42,1.81,1.81,0,0,1,1.12-.89l34-9.2a1.78,1.78,0,0,1,1.4.2,1.89,1.89,0,0,1,.88,1.14l2.58,9.53a1.88,1.88,0,0,1-.18,1.43,1.8,1.8,0,0,1-1.11.88l-19.87,5.38,1.15,4.26,18.41-5a1.76,1.76,0,0,1,1.41.2,1.79,1.79,0,0,1,.87,1.14l2.38,8.78a1.8,1.8,0,0,1-.18,1.43,1.77,1.77,0,0,1-1.11.88l-18.41,5,1.15,4.25,20.4-5.52a1.78,1.78,0,0,1,1.4.2,1.8,1.8,0,0,1,.88,1.14l2.58,9.53A1.82,1.82,0,0,1,434.09,602.55Zm61.8-38.24a18.93,18.93,0,0,1-4.36,9.33,32.79,32.79,0,0,1-8.9,7.3q-9,5.17-16.59,4.18T453.25,576q-1-1.61-3.13-5.31T447,565.16q-4.32-8.34-1.3-15.61t11.76-12.3a33,33,0,0,1,10.78-4,19,19,0,0,1,10.27.92,15.91,15.91,0,0,1,7.93,7.11,1.56,1.56,0,0,1-.54,2.09l-12.14,7a2.56,2.56,0,0,1-1.6.44,3.76,3.76,0,0,1-1.61-.94,5.75,5.75,0,0,0-3.19-1.55,5.43,5.43,0,0,0-3.15.84,5,5,0,0,0-2.57,3q-.48,1.77,1,4.48.88,1.66,2.84,5.07t3,5.12c1.06,1.76,2.18,2.79,3.37,3.11a5.58,5.58,0,0,0,6.43-6.57,3.17,3.17,0,0,1-.06-1.82,2.68,2.68,0,0,1,1.25-1.2l12.13-7a1.44,1.44,0,0,1,1.15-.14,1.54,1.54,0,0,1,.93.72A15.85,15.85,0,0,1,495.89,564.31Zm48.93-32.64L535,541.29a1.72,1.72,0,0,1-1.32.51,1.78,1.78,0,0,1-1.32-.56l-22.47-22.87-8.12,8a1.75,1.75,0,0,1-1.33.52,1.82,1.82,0,0,1-1.32-.57l-7.9-8a1.82,1.82,0,0,1-.54-1.33,1.76,1.76,0,0,1,.54-1.31l28.68-28.18a1.77,1.77,0,0,1,1.32-.51,1.85,1.85,0,0,1,1.32.56l7.9,8a1.84,1.84,0,0,1,.54,1.34,1.76,1.76,0,0,1-.54,1.31l-8.12,8L544.82,529a1.83,1.83,0,0,1,.54,1.33A1.74,1.74,0,0,1,544.82,531.67Zm5.33-296.24q-3.82-7.71-2.32-14t8.58-10.13c1-.53,2.52-1.32,4.59-2.35s3.65-1.78,4.71-2.26q7.2-3.3,13.29-.67t9.86,10.23q3.74,7.55,2.14,14t-8.59,10.17q-3.06,1.65-4.62,2.43T573.11,245q-7.33,3.3-13.24.71T550.15,235.43ZM568,473.8l-7.9-75.4,24.5,5.3-7.3-55L613,361.2l1.7,72.7-30.9-8.2Z" transform="translate(-25.49 -20)"/><path d="M308.22,483.29h-7.59l2.49-2.49a21,21,0,0,0,4.07-3.78,6.52,6.52,0,0,0,.39-7.32,6.16,6.16,0,0,0-2.78-2.28,10.69,10.69,0,0,0-4.35-.81,9.34,9.34,0,0,0-4.29.94,7.36,7.36,0,0,0-2.89,2.56,6.86,6.86,0,0,0-1.1,3.58.58.58,0,0,0,.2.43.59.59,0,0,0,.46.2h4a.92.92,0,0,0,1-.69,3.63,3.63,0,0,1,.84-1.75,2.29,2.29,0,0,1,1.8-.71,2,2,0,0,1,2.22,2.22,3,3,0,0,1-.76,1.84,14.87,14.87,0,0,1-2.22,2.18q-1.45,1.2-4.31,3.36l-2.79,2.73a1.85,1.85,0,0,0-.75,1.5v2.25a.75.75,0,0,0,.23.53.74.74,0,0,0,.52.22h15.63a.74.74,0,0,0,.54-.22.77.77,0,0,0,.21-.53V484a.72.72,0,0,0-.75-.75Z" transform="translate(-25.49 -20)"/><path d="M337.7,470.5a7.16,7.16,0,0,0-2.93-2.78,9.8,9.8,0,0,0-4.65-1,9.69,9.69,0,0,0-4.63,1,7.16,7.16,0,0,0-2.91,2.78,8.88,8.88,0,0,0-1.13,4q-.06,1.68-.06,3t.06,2.91a8.45,8.45,0,0,0,2.37,5.7q2.16,2.16,6.3,2.19t6.33-2.19a8.45,8.45,0,0,0,2.37-5.7q.06-.81.06-2.91t-.06-3A8.87,8.87,0,0,0,337.7,470.5ZM333,480.26a4.54,4.54,0,0,1-.75,2.6,2.48,2.48,0,0,1-2.1.91q-2.7,0-2.85-3.51,0-.87,0-2.82t0-2.76q.15-3.51,2.85-3.51a2.41,2.41,0,0,1,2.1.95,4.55,4.55,0,0,1,.75,2.56q.06.81.06,2.76T333,480.26Z" transform="translate(-25.49 -20)"/><path d="M362.43,467h-4a1.17,1.17,0,0,0-.69.21l-7,5.37a.77.77,0,0,0-.33.66.89.89,0,0,0,.12.45l1.86,2.4a.78.78,0,0,0,.63.36.86.86,0,0,0,.45-.15l4-3.09v14a.75.75,0,0,0,.23.53.74.74,0,0,0,.52.22h4.11a.79.79,0,0,0,.56-.21.7.7,0,0,0,.22-.54v-19.5a.7.7,0,0,0-.22-.54A.79.79,0,0,0,362.43,467Z" transform="translate(-25.49 -20)"/><path d="M389.52,475a7.83,7.83,0,0,0-3.6-.86,9.28,9.28,0,0,0-2.34.25,5.51,5.51,0,0,0-1.62.77l.36-3.69h8.73a.74.74,0,0,0,.54-.22.77.77,0,0,0,.21-.53v-3a.72.72,0,0,0-.75-.75H378.84a1,1,0,0,0-.67.24.91.91,0,0,0-.32.66l-1.11,10.53a.61.61,0,0,0,.2.46.59.59,0,0,0,.46.2h4.17a1.34,1.34,0,0,0,.78-.36,3.93,3.93,0,0,1,.87-.52,3.06,3.06,0,0,1,1.2-.2,3,3,0,0,1,2.16.81,2.71,2.71,0,0,1,.84,2,2.81,2.81,0,0,1-.85,2.19,3.07,3.07,0,0,1-2.15.78,3.18,3.18,0,0,1-1.75-.45,3.06,3.06,0,0,1-1.13-1.44,1,1,0,0,0-1-.57h-4.23a.62.62,0,0,0-.63.63,5.76,5.76,0,0,0,1.07,3.15,6.92,6.92,0,0,0,3,2.31,11.52,11.52,0,0,0,4.69.87,10.75,10.75,0,0,0,4.7-.95,7.09,7.09,0,0,0,3-2.6,6.93,6.93,0,0,0,1-3.77,6.44,6.44,0,0,0-1-3.57A6.81,6.81,0,0,0,389.52,475Z" transform="translate(-25.49 -20)"/><path d="M246.24,385.14l93.35,21.42a8.06,8.06,0,0,0,3.59,0l93.39-21.42a8,8,0,0,0,6.23-7.83V228.05a8,8,0,0,0-9.85-7.84l-91.56,20.88-91.57-20.88A8.05,8.05,0,0,0,240,228V377.31A8.05,8.05,0,0,0,246.24,385.14Zm9.79-147,77.32,17.73v.07l9.74,1.34,6.33-1.37v0l77.32-17.73,0,132.79-58.86,13.5L341,391l-23.24-5.93L256,370.91Z" transform="translate(-25.49 -20)"/><path d="M219.48,411.91l120.16,26.77h0a8.12,8.12,0,0,0,3.47,0l120.16-26.77h0a8,8,0,0,0,6.28-7.84L470,266a8,8,0,0,0-16,0l-.49,131.63-112.12,25-112.13-25L229,266a8,8,0,0,0-16,0l.2,138.09A8,8,0,0,0,219.48,411.91Z" transform="translate(-25.49 -20)"/><path d="M330.34,317.63,324.89,359a4.85,4.85,0,0,0,4.71,5h24.79a4.85,4.85,0,0,0,4.71-5l-5.45-41.41A22.92,22.92,0,0,0,364.82,298h0a22.82,22.82,0,1,0-34.48,19.59Z" transform="translate(-25.49 -20)"/></svg>