<svg xmlns="http://www.w3.org/2000/svg" viewBox="0 0 542.47 53.27"><title>Asset 1</title><g id="Layer_2" data-name="Layer 2"><g id="Layer_1-2" data-name="Layer 1"><path d="M426.51,21.88a2.89,2.89,0,0,0-2.16-.82c-.14,0-.26,0-.4,0s-.25,0-.39,0a2.9,2.9,0,0,0-2.18.82,3.61,3.61,0,0,0-.86,2.5c0,.49,0,1.19,0,2.1s0,1.66,0,2.16a3.61,3.61,0,0,0,.86,2.5,2.9,2.9,0,0,0,2.18.82c.14,0,.26,0,.39,0s.26,0,.4,0a2.89,2.89,0,0,0,2.16-.82,3.65,3.65,0,0,0,.86-2.5c0-1,.05-1.72.05-2.16s0-1.13-.05-2.1A3.65,3.65,0,0,0,426.51,21.88Z"/><path d="M401.7,21.17H398v4.28h3.68a2.39,2.39,0,0,0,1.7-.56,2,2,0,0,0,.58-1.55,2.17,2.17,0,0,0-.58-1.58A2.27,2.27,0,0,0,401.7,21.17Z"/><path d="M379.25,21.17h-3.7v4.46h3.7a2.37,2.37,0,0,0,1.67-.56,2.11,2.11,0,0,0,.61-1.65,2.35,2.35,0,0,0-.56-1.63A2.17,2.17,0,0,0,379.25,21.17Z"/><path d="M203.83,17.43H191a.61.61,0,0,0-.47.19.68.68,0,0,0-.18.48V35a.61.61,0,0,0,.19.45.63.63,0,0,0,.46.2h4.27a.6.6,0,0,0,.46-.2.61.61,0,0,0,.19-.45V29.18h7.42a.68.68,0,0,0,.48-.18.59.59,0,0,0,.19-.46V25.78a.65.65,0,0,0-.67-.67h-7.42V21.5h7.94a.68.68,0,0,0,.48-.18.61.61,0,0,0,.19-.47V18.1a.65.65,0,0,0-.67-.67Z"/><path d="M224.07,28.43a5.63,5.63,0,0,0,2.33-2,5.49,5.49,0,0,0,.84-3.09A5.35,5.35,0,0,0,225.31,19,8.38,8.38,0,0,0,220,17.43H212a.6.6,0,0,0-.46.19.68.68,0,0,0-.18.48V35a.61.61,0,0,0,.19.45.62.62,0,0,0,.45.2h4.35a.69.69,0,0,0,.48-.19A.6.6,0,0,0,217,35V29.26h1.7l2.85,5.63a1.09,1.09,0,0,0,1.07.71h4.45a.51.51,0,0,0,.39-.17.57.57,0,0,0,.15-.38.68.68,0,0,0-.07-.29Zm-7-3V21.17h2.09a2.27,2.27,0,0,1,1.7.59,2.17,2.17,0,0,1,.58,1.58,2,2,0,0,1-.58,1.55,2.39,2.39,0,0,1-1.7.56Z"/><path d="M248.23,31.7h-8.4V28.33h7.63a.66.66,0,0,0,.48-.2.65.65,0,0,0,.19-.48V25.29a.65.65,0,0,0-.67-.67h-7.63v-3.3H248a.68.68,0,0,0,.48-.18.61.61,0,0,0,.19-.47V18.1a.65.65,0,0,0-.67-.67H235a.59.59,0,0,0-.46.19.65.65,0,0,0-.19.48V35a.69.69,0,0,0,.65.65h13.25a.66.66,0,0,0,.48-.19.6.6,0,0,0,.2-.46V32.38a.66.66,0,0,0-.2-.48A.63.63,0,0,0,248.23,31.7Z"/><path d="M269.83,31.7h-8.41V28.33h7.63a.68.68,0,0,0,.68-.68V25.29a.66.66,0,0,0-.2-.48.65.65,0,0,0-.48-.19h-7.63v-3.3h8.2a.68.68,0,0,0,.48-.18.62.62,0,0,0,.2-.47V18.1a.66.66,0,0,0-.2-.48.65.65,0,0,0-.48-.19h-13a.61.61,0,0,0-.47.19.68.68,0,0,0-.18.48V35a.61.61,0,0,0,.19.45.65.65,0,0,0,.46.2h13.25a.69.69,0,0,0,.48-.19.59.59,0,0,0,.19-.46V32.38a.65.65,0,0,0-.19-.48A.66.66,0,0,0,269.83,31.7Z"/><path d="M291.76,19.26a8.88,8.88,0,0,0-6-1.83h-7.62a.63.63,0,0,0-.47.19.68.68,0,0,0-.18.48V35a.69.69,0,0,0,.65.65h7.75q7.81,0,8.07-7.12c0-.48,0-1.14,0-2s0-1.49,0-2A6.84,6.84,0,0,0,291.76,19.26ZM283.19,31.7V21.32h1.68a3.5,3.5,0,0,1,2.48.79,3.37,3.37,0,0,1,.89,2.45c0,.49.05,1.13.05,1.93s0,1.44-.05,1.94a3.55,3.55,0,0,1-.83,2.49,3.28,3.28,0,0,1-2.41.78Z"/><path d="M315.21,19a8.62,8.62,0,0,0-5.78-1.85h-.79a8.64,8.64,0,0,0-5.8,1.85,6.9,6.9,0,0,0-2.27,5.29q0,.75,0,2.25c0,1,0,1.75,0,2.23a6.86,6.86,0,0,0,2.26,5.27,8.7,8.7,0,0,0,5.81,1.79l.4,0,.39,0a8.66,8.66,0,0,0,5.8-1.79,6.89,6.89,0,0,0,2.25-5.27c0-1,0-1.71,0-2.23s0-1.25,0-2.25A6.9,6.9,0,0,0,315.21,19Zm-8,12.12a3.6,3.6,0,0,1-.85-2.5c0-.5,0-1.22,0-2.15s0-1.62,0-2.11a3.6,3.6,0,0,1,.85-2.5,2.39,2.39,0,0,1,3.55,0,3.6,3.6,0,0,1,.85,2.5c0,1,.05,1.67.05,2.11s0,1.15-.05,2.15a3.6,3.6,0,0,1-.85,2.5,2.39,2.39,0,0,1-3.55,0Z"/><path d="M342.76,17.43H339a1,1,0,0,0-.93.57L334,25.28,329.94,18a1,1,0,0,0-.94-.57h-3.72a.65.65,0,0,0-.48.19.66.66,0,0,0-.2.48V35a.6.6,0,0,0,.2.46.69.69,0,0,0,.48.19h4.06a.69.69,0,0,0,.48-.19A.6.6,0,0,0,330,35V27l2,3.67a1.08,1.08,0,0,0,.91.59h2.19a1,1,0,0,0,.91-.59L338,27v8a.69.69,0,0,0,.65.65h4.09a.69.69,0,0,0,.48-.19.59.59,0,0,0,.19-.46V18.1a.65.65,0,0,0-.67-.67Z"/><polygon points="109.06 23.13 108.66 22 106.35 28.61 107.14 28.61 110.97 28.61 111.77 28.61 109.45 22 109.06 23.13"/><path d="M64,28H59.71v4.07H64a2.05,2.05,0,0,0,1.57-.58,2,2,0,0,0,.56-1.44,2,2,0,0,0-.57-1.47A2.07,2.07,0,0,0,64,28Z"/><path d="M538,0H4.53A4.55,4.55,0,0,0,0,4.53V48.75a4.54,4.54,0,0,0,4.53,4.52H538a4.53,4.53,0,0,0,4.52-4.52V4.53A4.54,4.54,0,0,0,538,0Zm-42.9,35.1a10.32,10.32,0,0,1-3.66.73,8.55,8.55,0,0,1-5.51-1.77,6.85,6.85,0,0,1-2.25-5.24c0-.47,0-1.23,0-2.28s0-1.85,0-2.34A6.87,6.87,0,0,1,485.9,19a8.37,8.37,0,0,1,5.36-1.82,10.83,10.83,0,0,1,3.79.74,6.68,6.68,0,0,1,2.89,2.18,5.72,5.72,0,0,1,1.12,3.37.48.48,0,0,1-.17.39.54.54,0,0,1-.4.16H495.6a.82.82,0,0,1-.53-.14,1.13,1.13,0,0,1-.3-.54,3.07,3.07,0,0,0-1.11-1.77,3.37,3.37,0,0,0-2-.51c-.11,0-.22,0-.33,0a3.44,3.44,0,0,0-.46,0c-2,0-3,1.09-3,3.27,0,.47,0,1.19,0,2.15s0,1.71,0,2.21c.06,2.18,1.08,3.27,3,3.27l.45,0,.34,0a3.38,3.38,0,0,0,2-.52,3,3,0,0,0,1.11-1.76,1,1,0,0,1,.28-.53.84.84,0,0,1,.55-.15h2.89a.54.54,0,0,1,.4.16.48.48,0,0,1,.17.39,5.7,5.7,0,0,1-1.12,3.37A6.68,6.68,0,0,1,495.05,35.1ZM453,17.43a.65.65,0,0,1,.67.67V28.92a7,7,0,0,1-1,3.78,6,6,0,0,1-2.73,2.36,9.63,9.63,0,0,1-3.64.78,10.08,10.08,0,0,1-3.34-.67,6.51,6.51,0,0,1-2.76-2.05,5.34,5.34,0,0,1-1.08-3.26.58.58,0,0,1,.16-.4.48.48,0,0,1,.39-.17h2.92a.84.84,0,0,1,.57.17,1.12,1.12,0,0,1,.33.55A2.31,2.31,0,0,0,446,32c.11,0,.21,0,.32,0a3.59,3.59,0,0,0,.47,0,2.3,2.3,0,0,0,1.91-.82,3.68,3.68,0,0,0,.66-2.37V21.45h-8.33a.65.65,0,0,1-.46-.2.6.6,0,0,1-.19-.45V18.08a.61.61,0,0,1,.19-.47.67.67,0,0,1,.46-.18ZM431.61,28.79a6.89,6.89,0,0,1-2.25,5.27,9.15,9.15,0,0,1-10.82,0,6.86,6.86,0,0,1-2.26-5.27c0-.48,0-1.22,0-2.23s0-1.75,0-2.26A6.89,6.89,0,0,1,418.55,19a8.83,8.83,0,0,1,10.79,0,6.89,6.89,0,0,1,2.27,5.28c0,1,.05,1.76.05,2.26S431.64,27.83,431.61,28.79ZM22.3,35.6a.69.69,0,0,1-.65-.65V18.08a.62.62,0,0,1,.2-.47.64.64,0,0,1,.45-.18h2.84a.62.62,0,0,1,.65.65V31.52h7.79a.69.69,0,0,1,.48.19.66.66,0,0,1,.19.49V35a.59.59,0,0,1-.19.46.69.69,0,0,1-.48.19Zm20.5,0a.62.62,0,0,1-.45-.2.61.61,0,0,1-.19-.45V18.08a.61.61,0,0,1,.19-.47.64.64,0,0,1,.45-.18h2.92a.62.62,0,0,1,.65.65V35a.64.64,0,0,1-.18.45.62.62,0,0,1-.47.2Zm13.47,0a.62.62,0,0,1-.45-.2.61.61,0,0,1-.19-.45V18.1a.68.68,0,0,1,.18-.48.6.6,0,0,1,.46-.19H63.5a7.53,7.53,0,0,1,4.91,1.35A4.74,4.74,0,0,1,70,22.62a3.48,3.48,0,0,1-.67,2.15,4.31,4.31,0,0,1-1.46,1.33,4.12,4.12,0,0,1,1.79,1.54,4.29,4.29,0,0,1,.73,2.43,5,5,0,0,1-1.73,4.07,7.47,7.47,0,0,1-4.94,1.46Zm33.93,0a1.1,1.1,0,0,1-1.07-.71l-2.85-5.63H83V35a.59.59,0,0,1-.19.46.69.69,0,0,1-.48.19H79.56a.63.63,0,0,1-.46-.2.61.61,0,0,1-.19-.45V18.1a.68.68,0,0,1,.18-.48.61.61,0,0,1,.47-.19H85.9A8.38,8.38,0,0,1,91.26,19a5.31,5.31,0,0,1,1.93,4.39,5.49,5.49,0,0,1-.84,3.09,5.6,5.6,0,0,1-2.32,2l3.5,6.33a.71.71,0,0,1,.08.29.54.54,0,0,1-.16.38.51.51,0,0,1-.39.17Zm24.47,0a.91.91,0,0,1-.88-.58l-.94-2.51h-7.59L104.33,35a.92.92,0,0,1-.89.58h-2.58a.58.58,0,0,1-.54-.55,1.21,1.21,0,0,1,0-.23l6-16.64a1,1,0,0,1,1-.75h3.26a1,1,0,0,1,1,.75l6,16.64a.67.67,0,0,1,0,.23.55.55,0,0,1-.17.38.53.53,0,0,1-.38.17Zm22.11,0a1.09,1.09,0,0,1-1.06-.71l-2.85-5.63h-3.29V35a.59.59,0,0,1-.19.46.69.69,0,0,1-.48.19h-2.77a.69.69,0,0,1-.65-.65V18.1a.65.65,0,0,1,.19-.48.59.59,0,0,1,.46-.19h6.35A8.38,8.38,0,0,1,137.85,19a5.31,5.31,0,0,1,1.93,4.39,5.49,5.49,0,0,1-.84,3.09,5.57,5.57,0,0,1-2.33,2l3.51,6.33a.71.71,0,0,1,.08.29.59.59,0,0,1-.16.38.51.51,0,0,1-.39.17Zm16.28,0a.63.63,0,0,1-.46-.2.61.61,0,0,1-.19-.45V29.42l-6-11.16a.57.57,0,0,1-.08-.29.58.58,0,0,1,.55-.54h2.63a1,1,0,0,1,.6.18,1.11,1.11,0,0,1,.34.39l3.6,6.51.4-.71.4.71L158.46,18a1.08,1.08,0,0,1,.33-.39,1,1,0,0,1,.6-.18H162a.5.5,0,0,1,.38.17.51.51,0,0,1,.17.37.57.57,0,0,1-.08.29l-6,11.16V35a.59.59,0,0,1-.19.46.69.69,0,0,1-.48.19Zm24.2,11.19V6.48H356.63V46.79ZM376.42,29.34h-.8V35a.64.64,0,0,1-.18.45.6.6,0,0,1-.46.2h-3a.69.69,0,0,1-.65-.65V18.1a.68.68,0,0,1,.18-.48.63.63,0,0,1,.47-.19h6.55a8.3,8.3,0,0,1,5.3,1.53,5.4,5.4,0,0,1,1.92,4.49,5.2,5.2,0,0,1-1.92,4.42,8.54,8.54,0,0,1-5.3,1.47Zm28.81,6.26a1.1,1.1,0,0,1-1.07-.71l-2.85-5.63H398V35a.59.59,0,0,1-.19.46.69.69,0,0,1-.48.19h-2.76a.63.63,0,0,1-.46-.2.61.61,0,0,1-.19-.45V18.1a.68.68,0,0,1,.18-.48.61.61,0,0,1,.47-.19h6.34A8.38,8.38,0,0,1,406.29,19a5.31,5.31,0,0,1,1.93,4.39,5.49,5.49,0,0,1-.84,3.09,5.6,5.6,0,0,1-2.32,2l3.5,6.33a.71.71,0,0,1,.08.29.54.54,0,0,1-.16.38.51.51,0,0,1-.39.17Zm58.16,0a.61.61,0,0,1-.45-.2.62.62,0,0,1-.2-.45V18.1a.68.68,0,0,1,.18-.48.61.61,0,0,1,.47-.19h11.46a.65.65,0,0,1,.67.67v2.57a.61.61,0,0,1-.19.47.68.68,0,0,1-.48.18h-8.2v3.3h7.62a.66.66,0,0,1,.49.19.69.69,0,0,1,.19.48v2.36a.69.69,0,0,1-.19.48.66.66,0,0,1-.49.2h-7.62V31.7h8.4a.64.64,0,0,1,.48.2.66.66,0,0,1,.2.48V35a.6.6,0,0,1-.2.46.67.67,0,0,1-.48.19Zm53-13.94h-.8V35a.59.59,0,0,1-.19.46.69.69,0,0,1-.48.19H512.1a.69.69,0,0,1-.48-.19.59.59,0,0,1-.19-.46V21.66h-4.57a.68.68,0,0,1-.48-.18.63.63,0,0,1-.19-.47V18.1a.65.65,0,0,1,.67-.67h13.3a.65.65,0,0,1,.48.19.66.66,0,0,1,.2.48V21a.63.63,0,0,1-.2.47.68.68,0,0,1-.48.18Z"/><path d="M86.67,21.17H83v4.28h3.68a2.39,2.39,0,0,0,1.7-.56A2,2,0,0,0,89,23.34a2.17,2.17,0,0,0-.58-1.58A2.27,2.27,0,0,0,86.67,21.17Z"/><path d="M133.25,21.17h-3.67v4.28h3.67a2.35,2.35,0,0,0,1.7-.56,2,2,0,0,0,.59-1.55,2.18,2.18,0,0,0-.59-1.58A2.24,2.24,0,0,0,133.25,21.17Z"/><path d="M63,24.62h.79a2,2,0,0,0,1.48-.52,1.82,1.82,0,0,0,.52-1.35,1.76,1.76,0,0,0-.51-1.31,2,2,0,0,0-1.49-.51h-4v3.69H63Z"/></g></g></svg>